<svg xmlns="http://www.w3.org/2000/svg" viewBox="0 0 56.25 56.25"><defs><style>.cls-1{fill:#007932;}.cls-2{fill:#fff;}</style></defs><g id="Слой_2" data-name="Слой 2"><g id="Слой_1-2" data-name="Слой 1"><path class="cls-1" d="M56.25,28.12A28.13,28.13,0,1,0,23.73,55.91V36.25H16.59V28.12h7.14V21.93c0-7,4.2-10.94,10.62-10.94a43.24,43.24,0,0,1,6.3.55v6.92H37.1c-3.49,0-4.58,2.16-4.58,4.39v5.27h7.8l-1.25,8.13H32.52V55.91A28.14,28.14,0,0,0,56.25,28.12Z"/><path class="cls-2" d="M39.07,36.25l1.25-8.13h-7.8V22.85c0-2.23,1.09-4.39,4.58-4.39h3.55V11.54a43.24,43.24,0,0,0-6.3-.55c-6.42,0-10.62,3.89-10.62,10.94v6.19H16.59v8.13h7.14V55.91a28.58,28.58,0,0,0,8.79,0V36.25Z"/></g></g></svg>