<svg xmlns="http://www.w3.org/2000/svg" viewBox="0 0 150 138"><defs><style>.cls-1{fill:none;stroke:#007932;stroke-miterlimit:10;stroke-width:3px;}.cls-2{fill:#007932;}</style></defs><g id="Слой_2" data-name="Слой 2"><g id="Слой_1-2" data-name="Слой 1"><rect class="cls-1" x="1.5" y="1.5" width="147" height="135" rx="51.12"/><path class="cls-2" d="M80.1,67a1.35,1.35,0,0,0,1.79.58,112.26,112.26,0,0,1,11.75-5.24,1.32,1.32,0,0,0,.87-1.66,1.33,1.33,0,0,0-1.67-.87,114.76,114.76,0,0,0-12.16,5.4A1.34,1.34,0,0,0,80.1,67"/><path class="cls-2" d="M81.29,51.73a1.3,1.3,0,0,0,.6-.15,114.36,114.36,0,0,1,11.76-5.23,1.33,1.33,0,0,0-.81-2.53C88.78,45.1,81,49.05,80.68,49.21a1.33,1.33,0,0,0,.61,2.52"/><path class="cls-2" d="M113.17,49.07a1.34,1.34,0,0,0-1.33,1.33v51.82a4,4,0,0,1-4,4H76v-3.06a39.43,39.43,0,0,1,12-2.25,69.08,69.08,0,0,1,19.51,2.58,1.3,1.3,0,0,0,1.19-.18,1.32,1.32,0,0,0,.56-1.07V43.76a1.33,1.33,0,0,0-1-1.3s-1-.23-2.82-.56a1.33,1.33,0,0,0-.48,2.62l1.69.32v55.61a75,75,0,0,0-18.6-2.22,42,42,0,0,0-13.24,2.54,31.15,31.15,0,0,0-12-2.54,89.87,89.87,0,0,0-19.92,2.27V44.79a86.81,86.81,0,0,1,19.92-2.36,28.61,28.61,0,0,1,10.63,2.19V96.9a1.33,1.33,0,0,0,2,1.14c.13-.08,13.29-7.94,25-11.83a1.35,1.35,0,0,0,.91-1.27V30.47a1.32,1.32,0,0,0-.58-1.09,1.29,1.29,0,0,0-1.22-.15A140.89,140.89,0,0,0,77.92,40a1.33,1.33,0,0,0,1.41,2.26,141.1,141.1,0,0,1,19.23-9.82V84A148.76,148.76,0,0,0,76,94.59V43.76a1.31,1.31,0,0,0-.74-1.19,30.54,30.54,0,0,0-12.55-2.8,86.31,86.31,0,0,0-21.62,2.71,1.33,1.33,0,0,0-1,1.28v58.46a1.38,1.38,0,0,0,.52,1.06,1.41,1.41,0,0,0,.81.27,1.13,1.13,0,0,0,.36-.06,85.79,85.79,0,0,1,20.89-2.6,28.71,28.71,0,0,1,10.63,2.19v3.12H41.43a4,4,0,0,1-4-4V50.4a1.33,1.33,0,1,0-2.65,0v51.82a6.64,6.64,0,0,0,6.64,6.64h66.43a6.65,6.65,0,0,0,6.64-6.64V50.4a1.33,1.33,0,0,0-1.33-1.33"/><path class="cls-2" d="M80.1,59a1.31,1.31,0,0,0,1.18.73,1.47,1.47,0,0,0,.61-.14,110.11,110.11,0,0,1,11.75-5.24,1.33,1.33,0,1,0-.8-2.53,112.67,112.67,0,0,0-12.16,5.4A1.33,1.33,0,0,0,80.1,59"/><path class="cls-2" d="M80.1,74.92a1.35,1.35,0,0,0,1.79.58,110.69,110.69,0,0,1,11.75-5.23,1.33,1.33,0,0,0-.8-2.54,114.76,114.76,0,0,0-12.16,5.4,1.34,1.34,0,0,0-.58,1.79"/><path class="cls-2" d="M67,53.8c-8.2-1.93-17.52.53-17.92.63A1.33,1.33,0,0,0,49.39,57a1.34,1.34,0,0,0,.35,0c.09,0,9.07-2.39,16.63-.62A1.32,1.32,0,1,0,67,53.8"/><path class="cls-2" d="M67,61.77c-8.2-1.92-17.52.53-17.92.63A1.33,1.33,0,0,0,49.39,65a1.34,1.34,0,0,0,.35,0c.09,0,9.07-2.39,16.63-.61a1.35,1.35,0,0,0,1.6-1,1.33,1.33,0,0,0-1-1.59"/><path class="cls-2" d="M80.1,82.89a1.33,1.33,0,0,0,1.18.73,1.34,1.34,0,0,0,.61-.15,112.86,112.86,0,0,1,11.75-5.23,1.33,1.33,0,0,0-.8-2.54,116.92,116.92,0,0,0-12.16,5.4,1.34,1.34,0,0,0-.58,1.79"/><path class="cls-2" d="M67,69.74c-8.2-1.92-17.52.53-17.92.63A1.32,1.32,0,0,0,48.12,72a1.31,1.31,0,0,0,1.27,1,1.34,1.34,0,0,0,.35,0c.09,0,9.07-2.38,16.63-.61a1.35,1.35,0,0,0,1.6-1,1.33,1.33,0,0,0-1-1.59"/><path class="cls-2" d="M67,85.68c-8.2-1.92-17.52.53-17.92.64a1.33,1.33,0,0,0,.34,2.61,1.34,1.34,0,0,0,.35-.05c.09,0,9.07-2.38,16.63-.61a1.33,1.33,0,1,0,.6-2.59"/><path class="cls-2" d="M67,77.71c-8.2-1.92-17.52.53-17.92.64A1.33,1.33,0,0,0,49.39,81a1.34,1.34,0,0,0,.35,0c.09,0,9.07-2.39,16.63-.61a1.33,1.33,0,1,0,.6-2.59"/><path class="cls-2" d="M80.1,67a1.35,1.35,0,0,0,1.79.58,112.26,112.26,0,0,1,11.75-5.24,1.32,1.32,0,0,0,.87-1.66,1.33,1.33,0,0,0-1.67-.87,114.76,114.76,0,0,0-12.16,5.4A1.34,1.34,0,0,0,80.1,67"/><path class="cls-2" d="M81.29,51.73a1.3,1.3,0,0,0,.6-.15,114.36,114.36,0,0,1,11.76-5.23,1.33,1.33,0,0,0-.81-2.53C88.78,45.1,81,49.05,80.68,49.21a1.33,1.33,0,0,0,.61,2.52"/><path class="cls-2" d="M113.17,49.07a1.34,1.34,0,0,0-1.33,1.33v51.82a4,4,0,0,1-4,4H76v-3.06a39.43,39.43,0,0,1,12-2.25,69.08,69.08,0,0,1,19.51,2.58,1.3,1.3,0,0,0,1.19-.18,1.32,1.32,0,0,0,.56-1.07V43.76a1.33,1.33,0,0,0-1-1.3s-1-.23-2.82-.56a1.33,1.33,0,0,0-.48,2.62l1.69.32v55.61a75,75,0,0,0-18.6-2.22,42,42,0,0,0-13.24,2.54,31.15,31.15,0,0,0-12-2.54,89.87,89.87,0,0,0-19.92,2.27V44.79a86.81,86.81,0,0,1,19.92-2.36,28.61,28.61,0,0,1,10.63,2.19V96.9a1.33,1.33,0,0,0,2,1.14c.13-.08,13.29-7.94,25-11.83a1.35,1.35,0,0,0,.91-1.27V30.47a1.32,1.32,0,0,0-.58-1.09,1.29,1.29,0,0,0-1.22-.15A140.89,140.89,0,0,0,77.92,40a1.33,1.33,0,0,0,1.41,2.26,141.1,141.1,0,0,1,19.23-9.82V84A148.76,148.76,0,0,0,76,94.59V43.76a1.31,1.31,0,0,0-.74-1.19,30.54,30.54,0,0,0-12.55-2.8,86.31,86.31,0,0,0-21.62,2.71,1.33,1.33,0,0,0-1,1.28v58.46a1.38,1.38,0,0,0,.52,1.06,1.41,1.41,0,0,0,.81.27,1.13,1.13,0,0,0,.36-.06,85.79,85.79,0,0,1,20.89-2.6,28.71,28.71,0,0,1,10.63,2.19v3.12H41.43a4,4,0,0,1-4-4V50.4a1.33,1.33,0,1,0-2.65,0v51.82a6.64,6.64,0,0,0,6.64,6.64h66.43a6.65,6.65,0,0,0,6.64-6.64V50.4a1.33,1.33,0,0,0-1.33-1.33"/><path class="cls-2" d="M80.1,59a1.31,1.31,0,0,0,1.18.73,1.47,1.47,0,0,0,.61-.14,110.11,110.11,0,0,1,11.75-5.24,1.33,1.33,0,1,0-.8-2.53,112.67,112.67,0,0,0-12.16,5.4A1.33,1.33,0,0,0,80.1,59"/><path class="cls-2" d="M80.1,74.92a1.35,1.35,0,0,0,1.79.58,110.69,110.69,0,0,1,11.75-5.23,1.33,1.33,0,0,0-.8-2.54,114.76,114.76,0,0,0-12.16,5.4,1.34,1.34,0,0,0-.58,1.79"/><path class="cls-2" d="M67,53.8c-8.2-1.93-17.52.53-17.92.63A1.33,1.33,0,0,0,49.39,57a1.34,1.34,0,0,0,.35,0c.09,0,9.07-2.39,16.63-.62A1.32,1.32,0,1,0,67,53.8"/><path class="cls-2" d="M67,61.77c-8.2-1.92-17.52.53-17.92.63A1.33,1.33,0,0,0,49.39,65a1.34,1.34,0,0,0,.35,0c.09,0,9.07-2.39,16.63-.61a1.35,1.35,0,0,0,1.6-1,1.33,1.33,0,0,0-1-1.59"/><path class="cls-2" d="M80.1,82.89a1.33,1.33,0,0,0,1.18.73,1.34,1.34,0,0,0,.61-.15,112.86,112.86,0,0,1,11.75-5.23,1.33,1.33,0,0,0-.8-2.54,116.92,116.92,0,0,0-12.16,5.4,1.34,1.34,0,0,0-.58,1.79"/><path class="cls-2" d="M67,69.74c-8.2-1.92-17.52.53-17.92.63A1.32,1.32,0,0,0,48.12,72a1.31,1.31,0,0,0,1.27,1,1.34,1.34,0,0,0,.35,0c.09,0,9.07-2.38,16.63-.61a1.35,1.35,0,0,0,1.6-1,1.33,1.33,0,0,0-1-1.59"/><path class="cls-2" d="M67,85.68c-8.2-1.92-17.52.53-17.92.64a1.33,1.33,0,0,0,.34,2.61,1.34,1.34,0,0,0,.35-.05c.09,0,9.07-2.38,16.63-.61a1.33,1.33,0,1,0,.6-2.59"/><path class="cls-2" d="M67,77.71c-8.2-1.92-17.52.53-17.92.64A1.33,1.33,0,0,0,49.39,81a1.34,1.34,0,0,0,.35,0c.09,0,9.07-2.39,16.63-.61a1.33,1.33,0,1,0,.6-2.59"/></g></g></svg>