<svg xmlns="http://www.w3.org/2000/svg" viewBox="0 0 150 138"><defs><style>.cls-1{fill:#007932;}.cls-2{fill:none;stroke:#007932;stroke-miterlimit:10;stroke-width:3px;}</style></defs><g id="Слой_2" data-name="Слой 2"><g id="Слой_1-2" data-name="Слой 1"><path class="cls-1" d="M97.25,21.22l-4.86,17c-.51-.19-1-.37-1.56-.52l-1.26-.36,6.52-22.88-2.87-.82L86.69,36.53l-3.59-1,6.5-22.79-2.87-.82-6.5,22.79-1.29-.37c-.53-.15-1.07-.27-1.6-.38l4.86-17-2.88-.82-5,17.5A19.41,19.41,0,0,0,56.61,62.44c.21.39.41.76.59,1.11-.34.21-.69.42-1.09.64A19.41,19.41,0,0,0,55.93,98l-5.16,18.1,2.87.82,8.58-30a33.93,33.93,0,0,0,.57-16.3c.91-.59,1.79-1.21,2.65-1.88a36.77,36.77,0,0,1-.36,19L54.89,123.36l2.87.82,6.62-23.13,3.59,1-6.63,23.22,2.87.82,10.2-35.72a36.72,36.72,0,0,1,9.72-16.32c.38,1,.8,2,1.27,3a33.7,33.7,0,0,0-8.13,14.15l-8.36,29.28,2.88.82L76.74,104A19.43,19.43,0,0,0,94.45,75.14c-.22-.4-.41-.76-.59-1.12.33-.2.69-.41,1.09-.63a19.41,19.41,0,0,0,.17-33.84l5-17.51ZM59.34,86.09l-.81,2.81a10.42,10.42,0,0,1,1.54-16.63,31,31,0,0,1-.73,13.82Zm.93-17.41c-.43.26-.83.5-1.26.74A13.44,13.44,0,0,0,57.63,92l-.85,3a16.43,16.43,0,0,1,.78-28.26,27.13,27.13,0,0,0,2.36-1.45,32.55,32.55,0,0,0,5-4.06,34.06,34.06,0,0,0,8.85-14.92l1.06-3.73a9.86,9.86,0,0,1,1.62.31l1.29.36-1.12,3.88A36.66,36.66,0,0,1,65.29,65a37.36,37.36,0,0,1-5,3.66Zm4-11a10.41,10.41,0,0,1,7.46-14.94l-.8,2.81a31.13,31.13,0,0,1-6.66,12.13ZM68.78,99.2l-3.59-1L66,95.3l3.59,1Zm2.75-9.63-1.1,3.88-3.59-1L68,88.55a39.74,39.74,0,0,0,0-21.92A39.62,39.62,0,0,0,79.52,48l1.12-3.89,3.58,1L83.11,49a39.61,39.61,0,0,0,0,21.91A39.7,39.7,0,0,0,71.53,89.57ZM80.14,92A31,31,0,0,1,86.81,79.9a10.41,10.41,0,0,1-7.47,14.93Zm8.34-24a32.53,32.53,0,0,0,2.1,6.07,26.82,26.82,0,0,0,1.25,2.52A16.43,16.43,0,0,1,77.58,101l.87-3A13.42,13.42,0,0,0,89.22,78c-.24-.43-.46-.85-.72-1.36A37.53,37.53,0,0,1,86.2,71,36.69,36.69,0,0,1,86,49.86L87.1,46l1.27.36a9.58,9.58,0,0,1,1.54.59l-1.07,3.74A34,34,0,0,0,88.48,68Zm4-19.32A10.41,10.41,0,0,1,91,65.31a31,31,0,0,1,.75-13.82Zm8.8,12.25a16.34,16.34,0,0,1-7.82,9.84c-.31.17-.57.33-.83.49a30,30,0,0,1-1-2.9l.35-.2a13.44,13.44,0,0,0,.42-23.25,13,13,0,0,0-3.28-1.44l-11.89-3.4a12.76,12.76,0,0,0-3.53-.5,13.45,13.45,0,0,0-11.93,20l.2.35a29.3,29.3,0,0,1-2.36,1.94L59.23,61A16.43,16.43,0,0,1,75.3,36.65a15.2,15.2,0,0,1,2.83.54L90,40.58a17.58,17.58,0,0,1,2.69,1,16.45,16.45,0,0,1,8.61,19.31Z"/><rect class="cls-2" x="1.5" y="1.5" width="147" height="135" rx="51.12"/></g></g></svg>