<svg xmlns="http://www.w3.org/2000/svg" viewBox="0 0 150 138"><defs><style>.cls-1{fill:none;stroke:#007932;stroke-miterlimit:10;stroke-width:3px;}.cls-2{fill:#007932;}</style></defs><g id="Слой_2" data-name="Слой 2"><g id="Слой_1-2" data-name="Слой 1"><rect class="cls-1" x="1.5" y="1.5" width="147" height="135" rx="51.12"/><path class="cls-2" d="M40.21,88.3V84.57L45,80C56.42,69,61.6,63.25,61.67,56.49c0-4.56-2.21-8.77-8.9-8.77a15.3,15.3,0,0,0-9.53,3.8l-1.93-4.28A19.7,19.7,0,0,1,54,42.69c9.66,0,13.73,6.62,13.73,13,0,8.28-6,15-15.46,24.08L48.7,83.12v.14H68.84v5Z"/><path class="cls-2" d="M105.41,65.39c0,15.25-5.66,23.66-15.59,23.66-8.76,0-14.7-8.21-14.84-23,0-15,6.49-23.32,15.6-23.32C100,42.69,105.41,51.1,105.41,65.39Zm-24.35.69c0,11.66,3.58,18.28,9.1,18.28,6.21,0,9.18-7.24,9.18-18.7,0-11-2.83-18.28-9.11-18.28C84.92,47.38,81.06,53.86,81.06,66.08Z"/><line class="cls-1" x1="20.32" y1="126.17" x2="128.32" y2="13.17"/></g></g></svg>