<svg xmlns="http://www.w3.org/2000/svg" viewBox="0 0 150 138"><defs><style>.cls-1{fill:none;stroke:#007932;stroke-miterlimit:10;stroke-width:3px;}.cls-2{fill:#007932;}</style></defs><g id="Слой_2" data-name="Слой 2"><g id="Слой_1-2" data-name="Слой 1"><rect class="cls-1" x="1.5" y="1.5" width="147" height="135" rx="51.12"/><path class="cls-2" d="M79.22,19.46H72.83a5.11,5.11,0,0,0-5.1,5.11V41.08H45.53a5.1,5.1,0,0,0-5.1,5.1v6.39a5.1,5.1,0,0,0,5.1,5.1h22.2v55.76a5.12,5.12,0,0,0,5.1,5.11h6.39a5.12,5.12,0,0,0,5.1-5.11V57.67h22.2a5.11,5.11,0,0,0,5.11-5.1V46.18a5.12,5.12,0,0,0-5.11-5.1H84.32V24.57a5.11,5.11,0,0,0-5.1-5.11m0,3.63a1.47,1.47,0,0,1,1.47,1.48V43.23a1.48,1.48,0,0,0,1.48,1.48h24.35A1.47,1.47,0,0,1,108,46.18v6.39a1.48,1.48,0,0,1-1.48,1.48H82.17a1.47,1.47,0,0,0-1.48,1.47v57.91a1.47,1.47,0,0,1-1.47,1.48H72.83a1.48,1.48,0,0,1-1.48-1.48V55.52a1.47,1.47,0,0,0-1.47-1.47H45.53a1.48,1.48,0,0,1-1.48-1.48V46.18a1.47,1.47,0,0,1,1.48-1.47H69.88a1.47,1.47,0,0,0,1.47-1.48V24.57a1.48,1.48,0,0,1,1.48-1.48Z"/></g></g></svg>