<svg xmlns="http://www.w3.org/2000/svg" viewBox="0 0 56.25 56.25"><defs><style>.cls-1{fill:#007932;}.cls-2{fill:#fff;}</style></defs><g id="Слой_2" data-name="Слой 2"><g id="Слой_1-2" data-name="Слой 1"><circle class="cls-1" cx="28.12" cy="28.12" r="28.12"/><path class="cls-2" d="M36.85,17.48a1.94,1.94,0,1,0,1.94,1.94A1.94,1.94,0,0,0,36.85,17.48Z"/><path class="cls-2" d="M28.26,20a8.13,8.13,0,1,0,8.12,8.12A8.13,8.13,0,0,0,28.26,20Zm0,13.33a5.21,5.21,0,1,1,5.2-5.21A5.21,5.21,0,0,1,28.26,33.29Z"/><path class="cls-2" d="M34.71,44.57H21.54a9.91,9.91,0,0,1-9.9-9.9V21.5a9.91,9.91,0,0,1,9.9-9.9H34.71a9.91,9.91,0,0,1,9.9,9.9V34.67A9.91,9.91,0,0,1,34.71,44.57ZM21.54,14.7a6.81,6.81,0,0,0-6.8,6.8V34.67a6.81,6.81,0,0,0,6.8,6.8H34.71a6.81,6.81,0,0,0,6.8-6.8V21.5a6.81,6.81,0,0,0-6.8-6.8Z"/></g></g></svg>