<svg xmlns="http://www.w3.org/2000/svg" viewBox="0 0 116 38"><defs><style>.cls-1{fill:#fff;}.cls-2{fill:#007932;}</style></defs><g id="Слой_2" data-name="Слой 2"><g id="Слой_1-2" data-name="Слой 1"><rect class="cls-1" width="116" height="38" rx="12"/><path class="cls-2" d="M15.67,24a6.64,6.64,0,0,1-2.25-.38,4.43,4.43,0,0,1-1.68-1,.7.7,0,0,1-.21-.6.76.76,0,0,1,.34-.55.88.88,0,0,1,.64-.22.81.81,0,0,1,.54.29,2.94,2.94,0,0,0,1,.68,3.73,3.73,0,0,0,1.53.29,3,3,0,0,0,1.7-.38,1.18,1.18,0,0,0,.59-.95,1.2,1.2,0,0,0-.56-1,5.16,5.16,0,0,0-2-.66,5.63,5.63,0,0,1-2.64-1.06,2.35,2.35,0,0,1-.31-3.27,3.19,3.19,0,0,1,1.36-.9A5.22,5.22,0,0,1,15.57,14a5.25,5.25,0,0,1,2.1.38,3.64,3.64,0,0,1,1.45,1.07.84.84,0,0,1,.2.56.64.64,0,0,1-.31.49.74.74,0,0,1-.61.11,1.2,1.2,0,0,1-.61-.29,2.61,2.61,0,0,0-1-.66,3.71,3.71,0,0,0-1.26-.19,2.84,2.84,0,0,0-1.42.32,1,1,0,0,0-.56.87,1.06,1.06,0,0,0,.19.62,1.54,1.54,0,0,0,.7.5,7.86,7.86,0,0,0,1.5.39,7.38,7.38,0,0,1,2.14.68,2.76,2.76,0,0,1,1.11,1,2.36,2.36,0,0,1,.33,1.25,2.6,2.6,0,0,1-.45,1.5,3.17,3.17,0,0,1-1.32,1A5.2,5.2,0,0,1,15.67,24Z"/><path class="cls-2" d="M22.7,23.92a.78.78,0,0,1-.58-.22.81.81,0,0,1-.23-.59V10.68a.81.81,0,0,1,.23-.59.78.78,0,0,1,.58-.23.84.84,0,0,1,.61.23.8.8,0,0,1,.22.59V23.11a.8.8,0,0,1-.22.59A.83.83,0,0,1,22.7,23.92Zm.72-3.49-1-1.13,5.74-5.13a.77.77,0,0,1,.55-.23.71.71,0,0,1,.51.26.77.77,0,0,1,.23.55.74.74,0,0,1-.27.53Zm5.8,3.4a.79.79,0,0,1-.6.19.77.77,0,0,1-.54-.29l-3.76-4.65L25.47,18l3.86,4.74a.76.76,0,0,1,.19.55A.78.78,0,0,1,29.22,23.83Z"/><path class="cls-2" d="M35.72,24a5.18,5.18,0,0,1-2.57-.64,4.6,4.6,0,0,1-1.76-1.77A5.09,5.09,0,0,1,30.75,19a5.14,5.14,0,0,1,.64-2.6,4.6,4.6,0,0,1,1.76-1.77A5.18,5.18,0,0,1,35.72,14a5.08,5.08,0,0,1,2.55.63A4.77,4.77,0,0,1,40,16.41a5.14,5.14,0,0,1,.64,2.6,5.19,5.19,0,0,1-.63,2.58,4.67,4.67,0,0,1-1.76,1.77A5.13,5.13,0,0,1,35.72,24Zm0-1.5a3.27,3.27,0,0,0,1.72-.45,3.2,3.2,0,0,0,1.19-1.23A3.67,3.67,0,0,0,39.06,19a3.74,3.74,0,0,0-.43-1.82A3.16,3.16,0,0,0,37.44,16a3.27,3.27,0,0,0-1.72-.45A3.31,3.31,0,0,0,34,16a3.16,3.16,0,0,0-1.19,1.24A3.74,3.74,0,0,0,32.37,19a3.67,3.67,0,0,0,.43,1.81A3.2,3.2,0,0,0,34,22.05,3.31,3.31,0,0,0,35.72,22.5Z"/><path class="cls-2" d="M48.39,24a5,5,0,0,1-2.53-.65,4.73,4.73,0,0,1-1.77-1.78A5.11,5.11,0,0,1,43.42,19v-8.3a.85.85,0,0,1,.23-.61.91.91,0,0,1,1.23,0,.85.85,0,0,1,.23.61v5a4.47,4.47,0,0,1,1.53-1.26,4.56,4.56,0,0,1,2-.45,4.45,4.45,0,0,1,2.39.65,4.71,4.71,0,0,1,1.68,1.78A5.13,5.13,0,0,1,53.38,19a5,5,0,0,1-.66,2.56A4.88,4.88,0,0,1,48.39,24Zm0-1.5A3.22,3.22,0,0,0,50.1,22a3.31,3.31,0,0,0,1.2-1.26A3.68,3.68,0,0,0,51.74,19a3.62,3.62,0,0,0-.44-1.79A3.4,3.4,0,0,0,50.1,16a3.22,3.22,0,0,0-1.71-.46,3.17,3.17,0,0,0-1.71.46,3.22,3.22,0,0,0-1.19,1.24A3.62,3.62,0,0,0,45.06,19a3.67,3.67,0,0,0,.43,1.79,3.22,3.22,0,0,0,2.9,1.72Z"/><path class="cls-2" d="M56.54,24.21a1.15,1.15,0,0,1-.82-.35,1.14,1.14,0,0,1-.35-.82,1.17,1.17,0,0,1,.35-.85,1.17,1.17,0,0,1,1.67,0,1.16,1.16,0,0,1,.34.85,1.13,1.13,0,0,1-.34.82A1.15,1.15,0,0,1,56.54,24.21Z"/><path class="cls-2" d="M63.78,24a6.73,6.73,0,0,1-2.25-.38,4.43,4.43,0,0,1-1.68-1,.73.73,0,0,1-.2-.6.78.78,0,0,1,.33-.55.9.9,0,0,1,.65-.22.85.85,0,0,1,.54.29,3,3,0,0,0,1,.68,3.79,3.79,0,0,0,1.53.29,3,3,0,0,0,1.7-.38,1.16,1.16,0,0,0,.59-.95,1.2,1.2,0,0,0-.56-1,5,5,0,0,0-2-.66,5.72,5.72,0,0,1-2.65-1.06,2.36,2.36,0,0,1-.3-3.27,3.13,3.13,0,0,1,1.36-.9A5.14,5.14,0,0,1,63.69,14a5.32,5.32,0,0,1,2.1.38,3.61,3.61,0,0,1,1.44,1.07.79.79,0,0,1,.2.56.63.63,0,0,1-.3.49.77.77,0,0,1-.62.11,1.2,1.2,0,0,1-.61-.29,2.61,2.61,0,0,0-1-.66,3.71,3.71,0,0,0-1.26-.19,2.87,2.87,0,0,0-1.42.32,1,1,0,0,0-.56.87,1.13,1.13,0,0,0,.19.62,1.6,1.6,0,0,0,.7.5,8.22,8.22,0,0,0,1.51.39,7.21,7.21,0,0,1,2.13.68,2.87,2.87,0,0,1,1.12,1,2.36,2.36,0,0,1,.33,1.25,2.54,2.54,0,0,1-.46,1.5,3.13,3.13,0,0,1-1.31,1A5.22,5.22,0,0,1,63.78,24Z"/><path class="cls-2" d="M70.85,20.2a.79.79,0,0,1-.61-.25.81.81,0,0,1-.23-.6V10.71a.81.81,0,0,1,.84-.85.81.81,0,0,1,.61.24.82.82,0,0,1,.24.61v8.64a.81.81,0,0,1-.24.6A.78.78,0,0,1,70.85,20.2Zm0,3.74a.82.82,0,0,1-.61-.24.81.81,0,0,1-.23-.6V14.92a.81.81,0,0,1,.23-.61.85.85,0,0,1,.61-.23.84.84,0,0,1,.61.23.82.82,0,0,1,.24.61V23.1a.81.81,0,0,1-.24.6A.81.81,0,0,1,70.85,23.94Zm7.51,0a.81.81,0,0,1-.6-.24.79.79,0,0,1-.25-.6V18.58a3.5,3.5,0,0,0-.38-1.72,2.48,2.48,0,0,0-1.07-1,3.4,3.4,0,0,0-1.52-.33,3.25,3.25,0,0,0-1.45.32,2.77,2.77,0,0,0-1,.87,2.08,2.08,0,0,0-.38,1.22H70.6a3.79,3.79,0,0,1,.58-2,3.92,3.92,0,0,1,1.51-1.4A4.45,4.45,0,0,1,74.83,14a4.57,4.57,0,0,1,2.23.53,3.86,3.86,0,0,1,1.57,1.56,5.05,5.05,0,0,1,.58,2.5V23.1a.82.82,0,0,1-.25.6A.81.81,0,0,1,78.36,23.94Z"/><path class="cls-2" d="M86.73,24a5.18,5.18,0,0,1-2.57-.64,4.67,4.67,0,0,1-1.76-1.77A5.09,5.09,0,0,1,81.76,19a5.14,5.14,0,0,1,.64-2.6,4.67,4.67,0,0,1,1.76-1.77A5.18,5.18,0,0,1,86.73,14a5.08,5.08,0,0,1,2.55.63,4.7,4.7,0,0,1,1.77,1.77,5.52,5.52,0,0,1,0,5.18,4.67,4.67,0,0,1-1.76,1.77A5.13,5.13,0,0,1,86.73,24Zm0-1.5a3.33,3.33,0,0,0,1.73-.45,3.17,3.17,0,0,0,1.18-1.23A3.67,3.67,0,0,0,90.08,19a3.74,3.74,0,0,0-.44-1.82A3.13,3.13,0,0,0,88.46,16,3.55,3.55,0,0,0,85,16a3.23,3.23,0,0,0-1.19,1.24A3.74,3.74,0,0,0,83.38,19a3.67,3.67,0,0,0,.43,1.81A3.27,3.27,0,0,0,85,22.05,3.31,3.31,0,0,0,86.73,22.5Z"/><path class="cls-2" d="M95.28,28.14a.82.82,0,0,1-.85-.85V19a5.06,5.06,0,0,1,.68-2.55,4.83,4.83,0,0,1,1.77-1.79,4.9,4.9,0,0,1,2.5-.64,5,5,0,0,1,2.57.65,4.9,4.9,0,0,1,1.78,1.78,5,5,0,0,1,.66,2.57,5.3,5.3,0,0,1-.62,2.56,4.74,4.74,0,0,1-1.69,1.78,4.51,4.51,0,0,1-2.39.65,4.43,4.43,0,0,1-3.57-1.71v5a.8.8,0,0,1-.23.61A.82.82,0,0,1,95.28,28.14ZM99.4,22.5a3.17,3.17,0,0,0,1.71-.46,3.35,3.35,0,0,0,1.2-1.25,3.64,3.64,0,0,0,.44-1.78,3.69,3.69,0,0,0-.44-1.8,3.35,3.35,0,0,0-1.2-1.25,3.41,3.41,0,0,0-3.42,0,3.25,3.25,0,0,0-1.19,1.25,4,4,0,0,0,0,3.59,3.2,3.2,0,0,0,2.9,1.7Z"/></g></g></svg>